<?xml version="1.0" encoding="UTF-8" standalone="no"?>
<svg
        xmlns:dc="http://purl.org/dc/elements/1.1/"
        xmlns:cc="http://creativecommons.org/ns#"
        xmlns:rdf="http://www.w3.org/1999/02/22-rdf-syntax-ns#"
        xmlns="http://www.w3.org/2000/svg"
        width="210mm"
        height="297mm"
        viewBox="0 0 210 297"
        version="1.1"
        id="svg1345">
  <defs
     id="defs1339" />
  <metadata
     id="metadata1342">
    <rdf:RDF>
      <cc:Work
         rdf:about="">
        <dc:format>image/svg+xml</dc:format>
        <dc:anchorType
           rdf:resource="http://purl.org/dc/dcmitype/StillImage" />
        <dc:title></dc:title>
      </cc:Work>
    </rdf:RDF>
  </metadata>
  <g
     id="layer1">
    <path
       d="m 172.03207,105.51689 c -2.39791,-0.11332 -4.79475,-0.25584 -7.19279,-0.36581 -2.0265,-0.0725 -4.04615,-0.24199 -6.06386,-0.43908 -2.21779,-0.23028 -4.45126,-0.32922 -6.65389,-0.6863 -2.0418,-0.32656 -4.09996,-0.56051 -6.13011,-0.95295 -2.97707,-0.57009 -5.91781,-1.35289 -8.75763,-2.41647 -4.61445,-1.733503 -8.92216,-4.439606 -12.17465,-8.176637 -4.58142,-5.211646 -7.06565,-12.059925 -7.50998,-18.939509 -0.24785,-4.27499 0.21548,-8.678067 1.95296,-12.626805 0.97506,-2.1487 2.40517,-4.271838 4.59218,-5.320484 1.57112,-0.7739 3.50585,-0.605234 4.96708,0.33804 2.1569,1.361392 3.49137,3.677916 4.38331,6.005719 1.45344,3.879499 1.80662,8.103309 1.48533,12.211791 -0.58403,7.248523 -3.47677,14.438406 -8.66702,19.615283 -0.82727,0.827329 -1.70787,1.601236 -2.63366,2.316574 -4.10718,3.186746 -9.04429,5.110668 -14.05883,6.334288 -2.18263,0.51391 -4.38486,0.94892 -6.60169,1.28802 -2.49016,0.33138 -4.989802,0.59205 -7.483676,0.8958 -2.911208,0.22827 -5.827505,0.40158 -8.740686,0.60868 -2.082012,0.17493 -4.170848,0.21524 -6.258114,0.28667"
       id="path1347"
       style="fill:none;fill-opacity:1;stroke:#000000;stroke-width:0.264583;stroke-opacity:1" />
  </g>
</svg>
