<?xml version="1.0" encoding="iso-8859-1"?>
<!-- Generator: Adobe Illustrator 18.1.1, SVG Export Plug-In . SVG Version: 6.00 Build 0)  -->
<svg version="1.1" id="Capa_1" xmlns="http://www.w3.org/2000/svg" xmlns:xlink="http://www.w3.org/1999/xlink" x="0px" y="0px"
	 viewBox="0 0 237.64 237.64" style="enable-background:new 0 0 237.64 237.64;" xml:space="preserve">
<g>
	<path style="fill:#010002;" d="M7.954,226.53c-2.23,4.623-2.295,8.072-0.609,9.915c3.911,4.275,15.926-3.905,23.323-9.051
		l58.416-40.662c7.397-5.145,20.402-11.835,29.414-11.993c0.897-0.016,1.8-0.011,2.703,0.011c9.007,0.218,21.958,7.016,29.3,12.238
		l56.403,40.151c7.343,5.221,19.303,13.473,23.301,9.219c1.74-1.849,1.751-5.33-0.381-9.997L129.648,7.047
		c-4.264-9.333-11.335-9.404-15.79-0.163L7.954,226.53z"/>
</g>
<g>
</g>
<g>
</g>
<g>
</g>
<g>
</g>
<g>
</g>
<g>
</g>
<g>
</g>
<g>
</g>
<g>
</g>
<g>
</g>
<g>
</g>
<g>
</g>
<g>
</g>
<g>
</g>
<g>
</g>
</svg>
