<?xml version="1.0" encoding="UTF-8" standalone="no"?>
<!-- Created with Inkscape (http://www.inkscape.org/) -->

<svg
   width="210mm"
   height="297mm"
   viewBox="0 0 210 297"
   version="1.1"
   id="svg5"
   xmlns="http://www.w3.org/2000/svg"
   xmlns:svg="http://www.w3.org/2000/svg">
  <defs
     id="defs2" />
  <g
     id="layer1">
    <g
       id="layer1-1"
       transform="matrix(0.34388771,0,0,0.34388771,-18.469847,-14.010736)">
      <path
         id="path6184"
         style="fill:none;stroke:#000000;stroke-width:0.141667;stroke-miterlimit:4;stroke-dasharray:none;stroke-opacity:1"
         d="m 58.593452,43.05959 c -1.015724,0 -3.360065,0.477989 -4.714365,2.90776 l 0.0059,0.159319 c 0.0091,0.248796 0.0099,0.258912 0.238993,0.258912 0.189211,0 0.199156,-0.0099 0.248966,-0.07967 0.816562,-1.304508 2.198922,-2.014462 4.220408,-2.054291" />
      <path
         id="path6184-4"
         style="fill:none;stroke:#000000;stroke-width:0.141667;stroke-miterlimit:4;stroke-dasharray:none;stroke-opacity:1"
         d="m 67.880588,43.05959 c 1.015724,0 3.360065,0.477989 4.714365,2.90776 l -0.0059,0.159319 c -0.0091,0.248796 -0.0099,0.258912 -0.238993,0.258912 -0.189211,0 -0.199156,-0.0099 -0.248966,-0.07967 -0.816562,-1.304508 -2.198922,-2.014462 -4.220408,-2.054291" />
      <path
         style="font-variation-settings:normal;opacity:1;vector-effect:none;fill:none;fill-opacity:1;stroke:#000000;stroke-width:0.141667;stroke-linecap:butt;stroke-linejoin:miter;stroke-miterlimit:4;stroke-dasharray:none;stroke-dashoffset:0;stroke-opacity:1;-inkscape-stroke:none;stop-color:#000000;stop-opacity:1"
         d="m 58.581776,44.251721 c 0.958068,0 3.284238,-0.425198 4.65015,-2.512528 1.365911,2.095584 3.689951,2.51252 4.648178,2.512528"
         id="path8" />
      <path
         style="font-variation-settings:normal;vector-effect:none;fill:none;fill-opacity:1;stroke:#000000;stroke-width:0.141667;stroke-linecap:butt;stroke-linejoin:miter;stroke-miterlimit:4;stroke-dasharray:none;stroke-dashoffset:0;stroke-opacity:1;-inkscape-stroke:none;stop-color:#000000"
         d="m 67.881047,43.05825 c -0.607447,-0.0099 -1.800213,-0.09041 -2.696435,-0.528561 -1.075471,-0.537736 -1.483172,-1.165124 -1.732119,-1.553491 -0.0136,-0.02238 -0.03374,-0.03275 -0.06296,-0.0395 -0.0068,-0.0015 -0.0153,-0.0031 -0.02352,-0.0045 -0.0082,-7.51e-4 -0.01672,-0.0022 -0.02635,-0.0031 -0.0068,-5.24e-4 -0.01445,-7.48e-4 -0.0221,-0.0015 -0.0031,-8.7e-5 -0.0059,6.8e-5 -0.0088,0 -0.0091,-3.06e-4 -0.02068,1.36e-4 -0.03074,0 -0.01417,-9.6e-5 -0.02924,-0.0015 -0.04542,-0.0015 l 1.5e-5,9e-5 c -0.04295,0 -0.07797,7.2e-4 -0.106874,0.0031 -0.0085,5.64e-4 -0.01757,0.0023 -0.02493,0.0031 -7.51e-4,1.33e-4 -0.0022,-1.45e-4 -0.0031,0 -0.06522,0.0079 -0.08047,0.02748 -0.114213,0.07466 -0.816565,1.304508 -2.379754,2.01147 -4.401243,2.051302"
         id="path8-6" />
    </g>
  </g>
</svg>
