<?xml version="1.0" encoding="UTF-8" standalone="no"?>
<svg
    xmlns:dc="http://purl.org/dc/elements/1.1/"
    xmlns:cc="http://creativecommons.org/ns#"
    xmlns:rdf="http://www.w3.org/1999/02/22-rdf-syntax-ns#"
    xmlns:svg="http://www.w3.org/2000/svg"
    xmlns="http://www.w3.org/2000/svg"
    version="1.1"
    width="63.248809pt"
    height="1.195497pt"
    viewBox="0 -10.992072 63.248809 1.195497"
    id="svg17">
    <metadata
        id="metadata21">
        <rdf:RDF>
            <cc:Work
                rdf:about="">
                <dc:format>image/svg+xml</dc:format>
                <dc:type
                    rdf:resource="http://purl.org/dc/dcmitype/StillImage" />
                <dc:title></dc:title>
            </cc:Work>
        </rdf:RDF>
    </metadata>
    <defs
        id="defs2" />
    <g
        id="page1">
        <path
            d="M4.582814-10.713139C4.582814-10.98213 4.582814-10.992093 4.373599-10.992093C3.35741-10.992093 1.115816-10.513886-.239103-8.083002V-7.923599C-.239103-7.674533-.229141-7.664571 0-7.664571C.18929-7.664571 .199253-7.674533 .249066-7.744272C1.066002-9.049378 2.440847-9.756725 4.463263-9.796576C4.582814-9.796576 4.582814-9.866314 4.582814-10.07553V-10.713139Z"
            id="path4" />
        <rect
            x="4.483234"
            y="-10.992059"
            height="1.195483"
            width="22.657937"
            id="rect6" />
        <path
            d="M31.863462-12.865069C31.863462-13.114135 31.8535-13.124098 31.624359-13.124098C31.435069-13.124098 31.425106-13.114135 31.375293-13.044397C30.558357-11.739291 29.183512-11.031943 27.161096-10.992093C27.041545-10.992093 27.041545-10.922354 27.041545-10.713139V-10.07553C27.041545-9.806538 27.041545-9.796576 27.25076-9.796576C28.266949-9.796576 30.508543-10.274783 31.863462-12.705667V-12.865069Z"
            id="path8" />
        <path
            d="M36.207219-10.713139C36.207219-10.942279 36.207219-10.992093 36.067742-10.992093C35.460021-11.002055 34.47372-11.081756 33.577082-11.520113C32.501117-12.058095 32.092649-12.685741 31.843583-13.074284C31.813695-13.124098 31.753919-13.124098 31.624405-13.124098C31.395264-13.124098 31.385301-13.114135 31.385301-12.865069V-12.705667C32.74022-10.26482 34.981814-9.796576 35.998004-9.796576C36.207219-9.796576 36.207219-9.806538 36.207219-10.07553V-10.713139Z"
            id="path10" />
        <rect
            x="36.107638"
            y="-10.992059"
            height="1.195483"
            width="22.657937"
            id="rect12" />
        <path
            d="M63.487867-8.083002C62.132948-10.523849 59.891354-10.992093 58.875165-10.992093C58.665949-10.992093 58.665949-10.98213 58.665949-10.713139V-10.07553C58.665949-9.846389 58.665949-9.796576 58.805426-9.796576C59.413147-9.786613 60.399449-9.706912 61.296086-9.268556C62.372051-8.730573 62.78052-8.102927 63.029586-7.714384C63.059474-7.664571 63.119249-7.664571 63.248764-7.664571C63.477905-7.664571 63.487867-7.674533 63.487867-7.923599V-8.083002Z"
            id="path14" />
    </g>
</svg>
