<?xml version="1.0" encoding="UTF-8" standalone="no"?>
<!-- Created with Inkscape (http://www.inkscape.org/) -->

<svg
   width="210mm"
   height="297mm"
   viewBox="0 0 210 297"
   version="1.1"
   id="svg5"
   xmlns="http://www.w3.org/2000/svg"
   xmlns:svg="http://www.w3.org/2000/svg">
  <defs
     id="defs2" />
  <path
     id="path6184"
     style="fill:none;stroke:#000000;stroke-width:0.0487175;stroke-miterlimit:4;stroke-dasharray:none;stroke-opacity:1"
     d="m 1.679721,0.7969278 c -0.349295,0 -1.15548503,0.16437454 -1.62121215,0.9999429 l 0.0020289,0.054788 c 0.0031294,0.085558 0.0034045,0.089037 0.08218676,0.089037 0.0650673,0 0.0684873,-0.0034 0.0856163,-0.027397 C 0.50914652,1.4646934 0.98452314,1.220549 1.6796873,1.2068523" />
  <path
     id="path6184-4"
     style="fill:none;stroke:#000000;stroke-width:0.0487175;stroke-miterlimit:4;stroke-dasharray:none;stroke-opacity:1"
     d="m 4.8734867,1.2068523 c 0.6951642,0.013697 1.1705408,0.2578411 1.4513454,0.7064464 0.017129,0.023997 0.020549,0.027397 0.085616,0.027397 0.078787,0 0.079057,-0.00348 0.082187,-0.089037 l 0.00203,-0.054788 C 6.028938,0.96130234 5.222748,0.7969278 4.873453,0.7969278" />
  <path
     style="font-variation-settings:normal;vector-effect:none;fill:none;fill-opacity:1;stroke:#000000;stroke-width:0.0487175;stroke-linecap:butt;stroke-linejoin:miter;stroke-miterlimit:4;stroke-dasharray:none;stroke-dashoffset:0;stroke-opacity:1;-inkscape-stroke:none;stop-color:#000000"
     d="m 1.6757058,1.206887 c 0.3294678,0 1.1294091,-0.1462204 1.5991294,-0.8640275 0.46972,0.7206456 1.2689288,0.8640247 1.5984513,0.8640275"
     id="path8" />
  <path
     style="font-variation-settings:normal;vector-effect:none;fill:none;fill-opacity:1;stroke:#000000;stroke-width:0.0487175;stroke-linecap:butt;stroke-linejoin:miter;stroke-miterlimit:4;stroke-dasharray:none;stroke-dashoffset:0;stroke-opacity:1;-inkscape-stroke:none;stop-color:#000000"
     d="M 4.8736108,0.79646699 C 4.6647172,0.7930625 4.2545397,0.7653761 3.9463399,0.61470136 3.5764987,0.42978056 3.4362953,0.21402953 3.3506855,0.08047489 3.3460086,0.07277869 3.3390827,0.06921257 3.3290343,0.06689133 c -0.00234,-5.1583e-4 -0.00526,-0.001066 -0.00809,-0.0015475 -0.00282,-2.5826e-4 -0.00575,-7.5656e-4 -0.00906,-0.0010661 -0.00234,-1.8019e-4 -0.00497,-2.5722e-4 -0.0076,-5.1583e-4 -0.00107,-2.992e-5 -0.00203,2.339e-5 -0.00303,0 -0.00313,-1.0523e-4 -0.00711,4.677e-5 -0.010571,0 -0.00487,-3.301e-5 -0.010055,-5.1583e-4 -0.015619,-5.1583e-4 l 5.2e-6,3.095e-5 c -0.01477,0 -0.026813,2.476e-4 -0.036753,0.001066 -0.00292,1.9395e-4 -0.00604,7.9094e-4 -0.00857,0.001066 -2.582e-4,4.574e-5 -7.565e-4,-4.986e-5 -0.00107,0 -0.022428,0.0027167 -0.027673,0.00945 -0.039277,0.02567466 C 2.9085983,0.5396881 2.3710368,0.78280364 1.6758716,0.79650138"
     id="path8-6" />
</svg>
