<?xml version="1.0" encoding="UTF-8" standalone="no"?>
<svg
    xmlns:dc="http://purl.org/dc/elements/1.1/"
    xmlns:cc="http://creativecommons.org/ns#"
    xmlns:rdf="http://www.w3.org/1999/02/22-rdf-syntax-ns#"
    xmlns:svg="http://www.w3.org/2000/svg"
    xmlns="http://www.w3.org/2000/svg"
    version="1.1"
    width="32.378639pt"
    height="47.821144pt"
    viewBox="155.666236 -47.82114 32.378639 47.821144"
    id="svg29">
    <metadata
        id="metadata33">
        <rdf:RDF>
            <cc:Work
                rdf:about="">
                <dc:format>image/svg+xml</dc:format>
                <dc:type
                    rdf:resource="http://purl.org/dc/dcmitype/StillImage" />
                <dc:title></dc:title>
            </cc:Work>
        </rdf:RDF>
    </metadata>
    <defs
        id="defs2" />
    <g
        id="page1">
        <path
            d="m 167.18817,-25.828477 c 0,0.219178 0,0.278954 0.13948,0.278954 6.98381,0.01993 12.78207,0.826899 17.6538,4.313823 0.0897,0.06974 0.10959,0.06974 0.12951,0.06974 0.0996,0 0.0996,-0.06974 0.0996,-0.22914 0,-0.159402 0,-0.179328 -0.0199,-0.199253 -0.0299,-0.03985 -1.48444,-1.305106 -3.48693,-2.311333 -2.63014,-1.315068 -5.64882,-2.141967 -9.27522,-2.510585 -0.30884,-0.02989 -2.38107,-0.239103 -4.74221,-0.239103 h -0.38855 c -0.10959,0.01 -0.10959,0.06974 -0.10959,0.278954 z"
            id="path4" />
        <path
            d="m 167.11825,-25.549523 c 0.25903,0 0.26899,-0.01 0.26899,-0.278954 v -0.547945 c 0,-0.268992 -0.01,-0.278954 -0.26899,-0.278954 h -5.63886 c -0.25903,0 -0.26899,0.01 -0.26899,0.278954 v 0.547945 c 0,0.268991 0.01,0.278954 0.26899,0.278954 z"
            id="path6" />
        <path
            d="m 161.1406,-25.549523 c 0.25903,0 0.26899,-0.01 0.26899,-0.278954 v -0.547945 c 0,-0.268992 -0.01,-0.278954 -0.26899,-0.278954 h -5.63885 c -0.25903,0 -0.26899,0.01 -0.26899,0.278954 v 0.547945 c 0,0.268991 0.01,0.278954 0.26899,0.278954 z"
            id="path8" />
        <path
            d="m 155.43197,-26.376422 c 0,-0.209216 0,-0.268992 -0.10959,-0.278954 h -0.38854 c -6.08718,0 -9.6538,1.085927 -10.66003,1.394769 -2.2117,0.67746 -4.54296,1.783313 -6.59526,3.447074 -0.17933,0.149439 -0.22914,0.18929 -0.24907,0.22914 -0.01,0.01993 -0.0199,0.02989 -0.0199,0.189291 0,0.159403 0,0.22914 0.0996,0.22914 0.0199,0 0.0399,0 0.12952,-0.05978 4.60273,-3.317559 10.14196,-4.313823 17.65379,-4.323785 0.13948,0 0.13948,-0.05978 0.13948,-0.278954 z"
            id="path10" />
    </g>
</svg>
