<?xml version="1.0" encoding="UTF-8" standalone="no"?>
<svg
        version="1.1"
        width="32.378639pt"
        height="47.821144pt"
        viewBox="155.666236 -47.82114 32.378639 47.821144"
        id="svg29"
        xmlns="http://www.w3.org/2000/svg"
        xmlns:rdf="http://www.w3.org/1999/02/22-rdf-syntax-ns#"
        xmlns:cc="http://creativecommons.org/ns#"
        xmlns:dc="http://purl.org/dc/elements/1.1/">
  <metadata
     id="metadata33">
    <rdf:RDF>
      <cc:Work
         rdf:about="">
        <dc:format>image/svg+xml</dc:format>
        <dc:type
           rdf:resource="http://purl.org/dc/dcmitype/StillImage" />
      </cc:Work>
    </rdf:RDF>
  </metadata>
  <defs
     id="defs2" />
  <path
     d="m 167.1594,-37.315015 h -0.38646 c -6.05456,0 -9.75647,1.080107 -10.75731,1.387295 -2.19985,0.673829 -4.51861,1.773756 -6.55992,3.428602 -0.17836,0.148638 -0.22791,0.188275 -0.24773,0.227912 -0.01,0.01982 -0.0198,0.02973 -0.0198,0.188277 0,0.158548 0,0.227912 0.0991,0.227912 0.0198,0 0.0397,0 0.12883,-0.05946 4.57806,-3.299781 10.27171,-4.290707 17.74329,-4.300615"
     id="path10"
     style="fill:none;stroke:#000000;stroke-width:0.1;stroke-miterlimit:4;stroke-dasharray:none;stroke-opacity:1" />
  <path
     d="m 167.1594,-36.215092 c 7.47158,0.0099 13.16523,1.000834 17.74329,4.300615 0.0891,0.05946 0.10903,0.05946 0.12883,0.05946 0.0991,0 0.0991,-0.06936 0.0991,-0.227912 0,-0.158547 -0.01,-0.168457 -0.0198,-0.188277 -0.0198,-0.03964 -0.0694,-0.07927 -0.24773,-0.227912 -2.04131,-1.654846 -4.36007,-2.754773 -6.55992,-3.428602 -1.00084,-0.307188 -4.70275,-1.387295 -10.75731,-1.387295 h -0.38646"
     id="path10-3"
     style="fill:none;stroke:#000000;stroke-width:0.1;stroke-miterlimit:4;stroke-dasharray:none;stroke-opacity:1" />
</svg>
