<?xml version="1.0" encoding="UTF-8" standalone="no"?>
<svg
   id="svg"
   version="1.1"
   width="400"
   height="454.23728813559325"
   viewBox="0, 0, 400,454.23728813559325"
  xmlns="http://www.w3.org/2000/svg"
>
    <g
     id="svgg">
    <path
       id="path0"
       d="M 195.6,15.113 c 5.163,2.968 13.063,12.798 15.659,19.487 7.045,18.146 2.731,35.994 -12.606,52.153 -1.799,1.896 -4.525,4.887 -6.057,6.647 -1.532,1.76 -4.332,4.82 -6.223,6.8 -11.214,11.744 -15.842,22.382 -13.399,30.8 1.966,6.772 5.177,11.436 17.073,24.8 4.88,5.482 6.121,8.518 4.283,10.474 -1.854,1.974 -4.295,1.101 -12.633,-4.52 -34.421,-23.206 -36.875,-46.221 -8.098,-75.954 23.716,-24.503 29.894,-45.797 18.432,-63.529 -4.734,-7.323 -2.949,-10.904 3.569,-7.158 m -28.834,51.869 c 2.715,1.404 3.1,5.776 0.745,8.458 -1.676,1.909 -2.833,2.431 -12.311,5.548 -42.774,14.07 -72.756,34.754 -96.717,66.724 -16.448,21.945 -29.843,55.348 -32.277,80.488 -0.149,1.54 -0.526,4.834 -0.838,7.32 -0.66,5.256 -0.775,25.972 -0.167,30.08 0.212,1.43 0.568,4.498 0.792,6.818 5.02,52.051 37.498,103.508 82.207,130.246 22.254,13.309 55.456,24.099 74.287,24.144 1.822,0.004 5.293,0.273 7.713,0.596 7.049,0.944 10.702,0.78 27.6,-1.236 64.566,-7.703 121.927,-55.737 142.138,-119.025 C 372.471,267.897 371.284,223.407 356.72,186.6 335.846,133.842 295.032,97.266 238.615,80.76 226.066,77.089 224.4,76.075 224.4,72.112 c 0,-7.034 8.753,-6.75 31.6,1.028 24.599,8.374 41.809,18.521 63.968,37.717 5.81,5.033 7.493,6.765 16.117,16.577 25.327,28.82 40.28,63.69 45.288,105.611 0.875,7.324 0.877,29.642 0.003,36.355 -3.108,23.875 -6.932,38.771 -14.578,56.789 -24.957,58.816 -80.144,102.544 -141.121,111.82 -35.757,5.44 -64.368,1.831 -100.896,-12.725 C 77.69,406.519 38.722,363.552 21.677,311.6 c -5.082,-15.489 -9.282,-36.817 -9.278,-47.117 0.001,-1.604 -0.29,-5.294 -0.646,-8.2 -0.548,-4.483 -0.573,-5.949 -0.16,-9.683 0.268,-2.42 0.633,-7.19 0.813,-10.6 3.07,-58.394 39.096,-115.073 93.994,-147.877 14.434,-8.625 35.762,-17.175 52.2,-20.925 3.961,-0.904 6.695,-0.976 8.166,-0.216 m 62.58,26.247 c 2.571,2.023 1.727,3.701 -5.721,11.371 -13.159,13.551 -13.523,17.701 -3.478,39.601 7.498,16.347 3.164,30.598 -12.995,42.729 -8.179,6.141 -13.552,7.655 -13.552,3.821 0,-1.229 0.797,-2.288 5.413,-7.194 11.537,-12.262 13.048,-20.294 6.165,-32.774 -7.257,-13.16 -8.433,-24.611 -3.59,-34.983 5.42,-11.608 23.257,-26.112 27.758,-22.571 m -59.875,75.205 c 4.427,2.144 4.863,7.167 0.792,9.134 -1.771,0.856 -8.599,2.034 -11.76,2.029 -7.016,-0.01 -32.013,4.49 -40.415,7.276 -14.89,4.938 -15.259,11.318 -0.93,16.078 9.548,3.171 40.199,8.233 50.042,8.263 2.09,0.006 5.69,0.27 8,0.586 5.896,0.807 30.621,0.803 36.2,-0.005 2.2,-0.319 5.186,-0.583 6.635,-0.587 13.168,-0.039 48.742,-6.748 56.562,-10.667 12.702,-6.367 -2.176,-15.403 -34.107,-20.714 -3.36,-0.559 -6.629,-1.285 -7.265,-1.614 -4.031,-2.085 -4.053,-6.889 -0.04,-8.913 6.8,-3.429 42.835,5.244 54.09,13.019 5.983,4.133 7.191,6.647 7.545,15.699 0.401,10.24 1.119,11.125 7.881,9.715 24.347,-5.078 48.048,18.702 43.322,43.467 -4.552,23.852 -24.359,41.778 -55.281,50.03 -9.615,2.566 -10.064,2.963 -13.911,12.296 -4.794,11.629 -9.114,15.259 -14.355,12.064 -3.458,-2.109 -3.226,-4.755 1.461,-16.688 9.215,-23.46 15.072,-51.816 17.247,-83.502 0.83,-12.101 -0.43,-13.287 -10.855,-10.209 -12.314,3.635 -22.168,5.388 -44.129,7.847 -8.363,0.937 -57.352,0.909 -66,-0.038 -3.08,-0.337 -8.12,-0.891 -11.2,-1.231 -13.538,-1.493 -26.401,-4.123 -35.981,-7.356 -8.615,-2.906 -10.421,-1.9 -9.456,5.268 0.24,1.786 0.438,4.883 0.44,6.883 0.002,2 0.176,4.716 0.388,6.036 0.211,1.32 0.566,4.343 0.788,6.718 2.576,27.526 11.138,57.453 23.418,81.852 5.299,10.529 3.69177,7.29285 7.41323,14.392 9.85333,0.94656 42.33777,1.298 45.01977,0.08 3.354,-1.523 3.17,0.614 3.17,-36.842 0,-36.95 0.188,-34.584 -2.89,-36.426 -4.28,-2.561 -4.317,-3.44 -0.522,-12.109 6.615,-15.109 9.242,-15.524 15.582,-2.462 5.277,10.873 5.342,11.477 1.496,13.938 -3.731,2.386 -3.508,-0.114 -3.378,37.859 0.125,36.826 -0.04,34.772 2.906,36.171 1.253,0.594 2.706,0.663 11.748,0.553 l 10.319,-0.124 1.613,-1.069 c 1.871,-1.239 5.984,-7.139 11.834,-16.977 9.6,-16.144 16.066,-31.72 20.493,-49.365 2.672,-10.651 3.905,-12.789 7.376,-12.789 3.202,0 4.674,2.563 3.973,6.923 -2.625,16.344 -12.35,42.654 -21.803,58.989 -6.383,11.031 -6.574,11.571 -4.715,13.318 l 1.032,0.97 26.668,0.103 c 30.487,0.118 27.81,0.436 30.838,-3.663 3.056,-4.136 5.298,-3.971 14.807,1.095 12.252,6.528 12.099,9.019 -1.01,16.526 -9.714,5.563 -11.28,5.665 -13.825,0.905 -2.448,-4.578 1.008,-4.148 -34.471,-4.29 -36.827,-0.148 -34.1,-0.433 -38.271,4.012 -11.49,12.246 -15.571,16.02 -22.6,20.903 -6.95,4.828 -6.733,4.231 -6.992,19.209 -0.19,10.988 -0.274,12.109 -0.99,13.294 -2.063,3.409 -5.972,2.901 -7.891,-1.027 -0.84,-1.719 -0.931,-2.584 -1.155,-10.907 -0.347,-12.934 -0.792,-13.632 -9.651,-15.123 -13.333,-2.244 -22.628,-7.724 -35.789,-21.098 -10.274,-10.44 -6.23,-9.338 -34.296,-9.342 -29.246,-0.004 -32.467,-0.567 -32.322,-5.649 0.125,-4.405 0.648,-4.503 25.286,-4.743 21.624,-0.211 22.355,-0.269 22.953,-1.827 0.625,-1.628 0.168,-3.441 -1.776,-7.036 -13.756,-25.447 -23.046,-55.094 -26.365,-84.142 -0.453,-3.96 -1.093,-9.54 -1.423,-12.4 -1.581,-13.711 -0.69,-38.059 1.555,-42.489 4.601,-9.079 25.625,-16.461 55.456,-19.471 17.113,-1.726 19.044,-1.781 21.471,-0.606 M 303.2,222.237 c -7.631,1.108 -8.682,2.472 -9.214,11.963 -0.578,10.303 -2.571,25.497 -4.853,37 -3.168,15.962 -1.892,17.551 9.624,11.988 28.102,-13.575 39.291,-39.177 23.877,-54.63 -5.947,-5.962 -10.87,-7.563 -19.434,-6.321 M 151.457,347.201 c -9.133,2.816 11.386,18.847 24.943,19.487 6.348,0.299 7.4,-1.107 7.4,-9.888 0,-10.141 0.654,-9.774 -17.6,-9.875 -7.48,-0.042 -14.114,0.083 -14.743,0.276 m 46.676,0.016 c -4.458,1.369 -5.322,12.367 -1.056,13.438 3.215,0.807 12.769,-8.428 11.978,-11.579 -0.451,-1.795 -7.323,-2.965 -10.922,-1.859"
       stroke="#FFFFFF"
       fill="none"
       fill-rule="evenodd"></path>
  </g>
</svg>
